<svg 
  xmlns="http://www.w3.org/2000/svg" 
  xmlns:xlink="http://www.w3.org/1999/xlink" 
  version="1.1" 
  x="0px" 
  y="0px" 
  viewBox="0 0 50 50"  
  xml:space="preserve">
  <g>
  <path fill-rule="evenodd" 
  clip-rule="evenodd" 
  fill="rgb(200,50,70)" 
  d="M15.079,45.124l3.321-5.741c0.514-0.888,0.513-1.92,0-2.808l-1.849-3.203   c-0.556-0.958-1.356-1.486-2.482-1.486H7.79C8.261,37,11.539,41.586,15.079,45.124 M31.392,36.575   c-0.552,0.959-0.498,1.944,0.047,2.89l3.127,5.434c3.445-3.498,6.602-8.001,7.065-13.012h-5.907c-1.064,0-1.887,0.489-2.431,1.397   L31.392,36.575z M43.256,35.292c-0.884,3.043-2.541,5.823-4.507,8.288l2.677,1.633c2.167,1.321,5.009-0.115,5.158-2.705   C46.747,39.709,45.245,37.148,43.256,35.292z M10.861,43.817c-1.957-2.408-3.622-5.117-4.566-8.088   c-1.758,1.808-3.03,4.197-2.88,6.779c0.146,2.566,2.969,4.04,5.158,2.704L10.861,43.817z M18.663,32.04l1.901,3.292   c0.524,0.907,1.388,1.397,2.432,1.397h3.803c1.043,0,1.908-0.491,2.431-1.397l1.9-3.292c0.539-0.934,0.499-1.946-0.032-2.869   l-1.869-3.237c-0.521-0.903-1.391-1.397-2.431-1.397h-3.803c-1.071,0-1.915,0.505-2.447,1.423l-1.886,3.266   C18.15,30.118,18.151,31.148,18.663,32.04z M14.07,29.38c1.176,0,1.83-0.371,2.431-1.397l1.876-3.25   c0.6-1.024,0.628-1.816,0.024-2.849l-4.572-7.888c-3.852,4.099-5.82,9.828-6.069,15.385H14.07z M20.564,20.63   c0.527,0.91,1.381,1.402,2.432,1.402h3.803c1.043,0,1.908-0.492,2.431-1.397l4.742-8.167c-5.472-4.549-12.697-4.657-18.264-0.212   L20.564,20.63z M31.392,21.877c-0.601,1.035-0.584,1.792,0,2.814l1.879,3.254c0.601,1.044,1.259,1.435,2.453,1.435h5.937   c-0.245-5.463-2.136-11.036-5.838-15.134L31.392,21.877z M40.388,16.752c1.94,3.39,3.066,7.25,3.424,11.133l1.99,0.403   c2.021,0.408,3.826-1.353,3.413-3.411C48.34,20.536,44.47,17.779,40.388,16.752z M5.598,28.005   c0.339-3.853,1.432-7.682,3.326-11.062c-3.823,1.157-7.313,3.834-8.138,7.934c-0.41,2.038,1.374,3.823,3.413,3.411L5.598,28.005z    M17.567,8.414c4.561-2.255,9.746-2.245,14.285,0c0.355-2.179-0.2-4.058-1.642-5.763c-2.989-3.536-7.904-3.511-10.964-0.069   C17.799,4.212,17.139,6.271,17.567,8.414z M16.947,46.881c4.861,4.274,10.964,4.107,15.753-0.204l-3.423-5.958   c-0.609-1.062-1.211-1.485-2.478-1.485h-3.803c-1.167,0-1.844,0.376-2.432,1.401L16.947,46.881z"/></g>
</svg>